<mxfile host="Electron" modified="2023-12-29T05:47:09.326Z" agent="Mozilla/5.0 (Windows NT 10.0; Win64; x64) AppleWebKit/537.36 (KHTML, like Gecko) draw.io/21.2.8 Chrome/112.0.5615.165 Electron/24.2.0 Safari/537.36" etag="qlkkNKWXIXA_pKkRwebt" version="21.2.8" type="device">
  <diagram name="Page-1" id="Dp2LCQyxZGAmDatRVv9P">
    <mxGraphModel dx="1931" dy="669" grid="1" gridSize="10" guides="1" tooltips="1" connect="1" arrows="1" fold="1" page="1" pageScale="1" pageWidth="827" pageHeight="1169" math="0" shadow="0">
      <root>
        <mxCell id="0" />
        <mxCell id="1" parent="0" />
        <mxCell id="cPJQanP_NMV2ZF2t2-Fl-1" value="&lt;font size=&quot;1&quot; style=&quot;&quot; color=&quot;#ffffff&quot; face=&quot;Verdana&quot;&gt;&lt;b style=&quot;font-size: 14px;&quot;&gt;B&lt;/b&gt;&lt;/font&gt;" style="ellipse;whiteSpace=wrap;html=1;aspect=fixed;fillColor=#e51400;fontColor=#ffffff;strokeColor=#B20000;" parent="1" vertex="1">
          <mxGeometry x="50" y="200" width="40" height="40" as="geometry" />
        </mxCell>
        <mxCell id="cPJQanP_NMV2ZF2t2-Fl-2" value="&lt;font size=&quot;1&quot; style=&quot;&quot; color=&quot;#ffffff&quot; face=&quot;Verdana&quot;&gt;&lt;b style=&quot;font-size: 14px;&quot;&gt;C&lt;/b&gt;&lt;/font&gt;" style="ellipse;whiteSpace=wrap;html=1;aspect=fixed;fillColor=#000000;" parent="1" vertex="1">
          <mxGeometry x="-20" y="261" width="40" height="40" as="geometry" />
        </mxCell>
        <mxCell id="cPJQanP_NMV2ZF2t2-Fl-3" value="" style="endArrow=classic;html=1;rounded=0;exitX=0;exitY=1;exitDx=0;exitDy=0;entryX=1;entryY=0;entryDx=0;entryDy=0;" parent="1" source="cPJQanP_NMV2ZF2t2-Fl-1" target="cPJQanP_NMV2ZF2t2-Fl-2" edge="1">
          <mxGeometry width="50" height="50" relative="1" as="geometry">
            <mxPoint x="319" y="330" as="sourcePoint" />
            <mxPoint x="13.142135623731065" y="265.85786437626894" as="targetPoint" />
          </mxGeometry>
        </mxCell>
        <mxCell id="cPJQanP_NMV2ZF2t2-Fl-5" value="" style="endArrow=classic;html=1;rounded=0;exitX=1;exitY=1;exitDx=0;exitDy=0;entryX=0;entryY=0;entryDx=0;entryDy=0;" parent="1" source="cPJQanP_NMV2ZF2t2-Fl-1" target="cPJQanP_NMV2ZF2t2-Fl-6" edge="1">
          <mxGeometry width="50" height="50" relative="1" as="geometry">
            <mxPoint x="319" y="330" as="sourcePoint" />
            <mxPoint x="171.6170993996443" y="272.121614028419" as="targetPoint" />
          </mxGeometry>
        </mxCell>
        <mxCell id="cPJQanP_NMV2ZF2t2-Fl-6" value="&lt;font size=&quot;1&quot; style=&quot;&quot; color=&quot;#ffffff&quot; face=&quot;Verdana&quot;&gt;&lt;b style=&quot;font-size: 14px;&quot;&gt;D&lt;/b&gt;&lt;/font&gt;" style="ellipse;whiteSpace=wrap;html=1;aspect=fixed;fillColor=#000000;" parent="1" vertex="1">
          <mxGeometry x="120" y="266" width="40" height="40" as="geometry" />
        </mxCell>
        <mxCell id="K3IvD1-hRMfwmRw_c2fl-26" value="&lt;font size=&quot;1&quot; style=&quot;&quot; color=&quot;#ffffff&quot; face=&quot;Verdana&quot;&gt;&lt;b style=&quot;font-size: 14px;&quot;&gt;A&lt;/b&gt;&lt;/font&gt;" style="ellipse;whiteSpace=wrap;html=1;aspect=fixed;fillColor=#000000;" vertex="1" parent="1">
          <mxGeometry x="120" y="140" width="40" height="40" as="geometry" />
        </mxCell>
        <mxCell id="K3IvD1-hRMfwmRw_c2fl-27" value="" style="endArrow=classic;html=1;rounded=0;exitX=0;exitY=1;exitDx=0;exitDy=0;entryX=1;entryY=0;entryDx=0;entryDy=0;" edge="1" parent="1" source="K3IvD1-hRMfwmRw_c2fl-26" target="cPJQanP_NMV2ZF2t2-Fl-1">
          <mxGeometry width="50" height="50" relative="1" as="geometry">
            <mxPoint x="230" y="330" as="sourcePoint" />
            <mxPoint x="280" y="280" as="targetPoint" />
          </mxGeometry>
        </mxCell>
        <mxCell id="K3IvD1-hRMfwmRw_c2fl-28" value="&lt;font size=&quot;1&quot; style=&quot;&quot; color=&quot;#ffffff&quot; face=&quot;Verdana&quot;&gt;&lt;b style=&quot;font-size: 14px;&quot;&gt;B&lt;/b&gt;&lt;/font&gt;" style="ellipse;whiteSpace=wrap;html=1;aspect=fixed;fillColor=#000000;fontColor=#ffffff;strokeColor=#000000;" vertex="1" parent="1">
          <mxGeometry x="388" y="207" width="40" height="40" as="geometry" />
        </mxCell>
        <mxCell id="K3IvD1-hRMfwmRw_c2fl-29" value="&lt;font size=&quot;1&quot; style=&quot;&quot; color=&quot;#ffffff&quot; face=&quot;Verdana&quot;&gt;&lt;b style=&quot;font-size: 14px;&quot;&gt;C&lt;/b&gt;&lt;/font&gt;" style="ellipse;whiteSpace=wrap;html=1;aspect=fixed;fillColor=#000000;" vertex="1" parent="1">
          <mxGeometry x="318" y="268" width="40" height="40" as="geometry" />
        </mxCell>
        <mxCell id="K3IvD1-hRMfwmRw_c2fl-30" value="" style="endArrow=classic;html=1;rounded=0;exitX=0;exitY=1;exitDx=0;exitDy=0;entryX=1;entryY=0;entryDx=0;entryDy=0;" edge="1" parent="1" source="K3IvD1-hRMfwmRw_c2fl-28" target="K3IvD1-hRMfwmRw_c2fl-29">
          <mxGeometry width="50" height="50" relative="1" as="geometry">
            <mxPoint x="657" y="337" as="sourcePoint" />
            <mxPoint x="351.14213562373106" y="272.85786437626894" as="targetPoint" />
          </mxGeometry>
        </mxCell>
        <mxCell id="K3IvD1-hRMfwmRw_c2fl-31" value="" style="endArrow=classic;html=1;rounded=0;exitX=1;exitY=1;exitDx=0;exitDy=0;entryX=0;entryY=0;entryDx=0;entryDy=0;" edge="1" parent="1" source="K3IvD1-hRMfwmRw_c2fl-28" target="K3IvD1-hRMfwmRw_c2fl-32">
          <mxGeometry width="50" height="50" relative="1" as="geometry">
            <mxPoint x="657" y="337" as="sourcePoint" />
            <mxPoint x="509.6170993996443" y="279.121614028419" as="targetPoint" />
          </mxGeometry>
        </mxCell>
        <mxCell id="K3IvD1-hRMfwmRw_c2fl-32" value="&lt;font size=&quot;1&quot; style=&quot;&quot; color=&quot;#ffffff&quot; face=&quot;Verdana&quot;&gt;&lt;b style=&quot;font-size: 14px;&quot;&gt;D&lt;/b&gt;&lt;/font&gt;" style="ellipse;whiteSpace=wrap;html=1;aspect=fixed;fillColor=#e51400;fontColor=#ffffff;strokeColor=#B20000;" vertex="1" parent="1">
          <mxGeometry x="458" y="273" width="40" height="40" as="geometry" />
        </mxCell>
        <mxCell id="K3IvD1-hRMfwmRw_c2fl-33" value="&lt;font size=&quot;1&quot; style=&quot;&quot; color=&quot;#ffffff&quot; face=&quot;Verdana&quot;&gt;&lt;b style=&quot;font-size: 14px;&quot;&gt;A&lt;/b&gt;&lt;/font&gt;" style="ellipse;whiteSpace=wrap;html=1;aspect=fixed;fillColor=#000000;" vertex="1" parent="1">
          <mxGeometry x="468" y="140" width="40" height="40" as="geometry" />
        </mxCell>
        <mxCell id="K3IvD1-hRMfwmRw_c2fl-34" value="" style="endArrow=classic;html=1;rounded=0;exitX=0;exitY=1;exitDx=0;exitDy=0;entryX=1;entryY=0;entryDx=0;entryDy=0;" edge="1" parent="1" source="K3IvD1-hRMfwmRw_c2fl-33" target="K3IvD1-hRMfwmRw_c2fl-28">
          <mxGeometry width="50" height="50" relative="1" as="geometry">
            <mxPoint x="568" y="337" as="sourcePoint" />
            <mxPoint x="618" y="287" as="targetPoint" />
          </mxGeometry>
        </mxCell>
        <mxCell id="K3IvD1-hRMfwmRw_c2fl-35" value="" style="endArrow=classic;html=1;rounded=0;dashed=1;strokeWidth=2;" edge="1" parent="1">
          <mxGeometry width="50" height="50" relative="1" as="geometry">
            <mxPoint x="200" y="230" as="sourcePoint" />
            <mxPoint x="300" y="230" as="targetPoint" />
          </mxGeometry>
        </mxCell>
        <mxCell id="K3IvD1-hRMfwmRw_c2fl-36" value="&lt;font face=&quot;Verdana&quot; size=&quot;1&quot; color=&quot;#ff0000&quot; style=&quot;&quot;&gt;&lt;b style=&quot;font-size: 18px;&quot;&gt;x&lt;/b&gt;&lt;/font&gt;" style="text;html=1;align=center;verticalAlign=middle;resizable=0;points=[];autosize=1;strokeColor=none;fillColor=none;" vertex="1" parent="1">
          <mxGeometry x="16" y="226" width="40" height="40" as="geometry" />
        </mxCell>
        <mxCell id="K3IvD1-hRMfwmRw_c2fl-38" value="&lt;font face=&quot;Verdana&quot; size=&quot;1&quot; color=&quot;#ff0000&quot; style=&quot;&quot;&gt;&lt;b style=&quot;font-size: 18px;&quot;&gt;x&lt;/b&gt;&lt;/font&gt;" style="text;html=1;align=center;verticalAlign=middle;resizable=0;points=[];autosize=1;strokeColor=none;fillColor=none;" vertex="1" parent="1">
          <mxGeometry x="357" y="234" width="40" height="40" as="geometry" />
        </mxCell>
        <mxCell id="K3IvD1-hRMfwmRw_c2fl-39" value="&lt;font size=&quot;1&quot; style=&quot;&quot; color=&quot;#ffffff&quot; face=&quot;Verdana&quot;&gt;&lt;b style=&quot;font-size: 14px;&quot;&gt;B&lt;/b&gt;&lt;/font&gt;" style="ellipse;whiteSpace=wrap;html=1;aspect=fixed;fillColor=#000000;fontColor=#ffffff;strokeColor=#000000;" vertex="1" parent="1">
          <mxGeometry x="19" y="431" width="40" height="40" as="geometry" />
        </mxCell>
        <mxCell id="K3IvD1-hRMfwmRw_c2fl-40" value="&lt;font size=&quot;1&quot; style=&quot;&quot; color=&quot;#ffffff&quot; face=&quot;Verdana&quot;&gt;&lt;b style=&quot;font-size: 14px;&quot;&gt;D&lt;/b&gt;&lt;/font&gt;" style="ellipse;whiteSpace=wrap;html=1;aspect=fixed;fillColor=#000000;" vertex="1" parent="1">
          <mxGeometry x="-51" y="497" width="40" height="40" as="geometry" />
        </mxCell>
        <mxCell id="K3IvD1-hRMfwmRw_c2fl-41" value="" style="endArrow=classic;html=1;rounded=0;exitX=0;exitY=1;exitDx=0;exitDy=0;entryX=1;entryY=0;entryDx=0;entryDy=0;" edge="1" parent="1" source="K3IvD1-hRMfwmRw_c2fl-39" target="K3IvD1-hRMfwmRw_c2fl-40">
          <mxGeometry width="50" height="50" relative="1" as="geometry">
            <mxPoint x="288" y="561" as="sourcePoint" />
            <mxPoint x="-17.857864376268935" y="496.85786437626894" as="targetPoint" />
          </mxGeometry>
        </mxCell>
        <mxCell id="K3IvD1-hRMfwmRw_c2fl-42" value="" style="endArrow=classic;html=1;rounded=0;exitX=1;exitY=1;exitDx=0;exitDy=0;entryX=0;entryY=0;entryDx=0;entryDy=0;" edge="1" parent="1" source="K3IvD1-hRMfwmRw_c2fl-39" target="K3IvD1-hRMfwmRw_c2fl-43">
          <mxGeometry width="50" height="50" relative="1" as="geometry">
            <mxPoint x="288" y="561" as="sourcePoint" />
            <mxPoint x="140.6170993996443" y="503.121614028419" as="targetPoint" />
          </mxGeometry>
        </mxCell>
        <mxCell id="K3IvD1-hRMfwmRw_c2fl-43" value="&lt;font size=&quot;1&quot; style=&quot;&quot; color=&quot;#ffffff&quot; face=&quot;Verdana&quot;&gt;&lt;b style=&quot;font-size: 14px;&quot;&gt;E&lt;/b&gt;&lt;/font&gt;" style="ellipse;whiteSpace=wrap;html=1;aspect=fixed;fillColor=#000000;" vertex="1" parent="1">
          <mxGeometry x="89" y="497" width="40" height="40" as="geometry" />
        </mxCell>
        <mxCell id="K3IvD1-hRMfwmRw_c2fl-44" value="&lt;font size=&quot;1&quot; style=&quot;&quot; color=&quot;#ffffff&quot; face=&quot;Verdana&quot;&gt;&lt;b style=&quot;font-size: 14px;&quot;&gt;A&lt;/b&gt;&lt;/font&gt;" style="ellipse;whiteSpace=wrap;html=1;aspect=fixed;fillColor=#e51400;fontColor=#ffffff;strokeColor=#B20000;" vertex="1" parent="1">
          <mxGeometry x="79" y="351" width="40" height="40" as="geometry" />
        </mxCell>
        <mxCell id="K3IvD1-hRMfwmRw_c2fl-45" value="" style="endArrow=classic;html=1;rounded=0;exitX=0;exitY=1;exitDx=0;exitDy=0;entryX=1;entryY=0;entryDx=0;entryDy=0;" edge="1" parent="1" source="K3IvD1-hRMfwmRw_c2fl-44" target="K3IvD1-hRMfwmRw_c2fl-39">
          <mxGeometry width="50" height="50" relative="1" as="geometry">
            <mxPoint x="199" y="561" as="sourcePoint" />
            <mxPoint x="249" y="511" as="targetPoint" />
          </mxGeometry>
        </mxCell>
        <mxCell id="K3IvD1-hRMfwmRw_c2fl-46" value="&lt;font face=&quot;Verdana&quot; size=&quot;1&quot; color=&quot;#ff0000&quot; style=&quot;&quot;&gt;&lt;b style=&quot;font-size: 18px;&quot;&gt;x&lt;/b&gt;&lt;/font&gt;" style="text;html=1;align=center;verticalAlign=middle;resizable=0;points=[];autosize=1;strokeColor=none;fillColor=none;" vertex="1" parent="1">
          <mxGeometry x="-15" y="457" width="40" height="40" as="geometry" />
        </mxCell>
        <mxCell id="K3IvD1-hRMfwmRw_c2fl-47" value="" style="endArrow=classic;html=1;rounded=0;dashed=1;strokeWidth=2;" edge="1" parent="1">
          <mxGeometry width="50" height="50" relative="1" as="geometry">
            <mxPoint x="199" y="456" as="sourcePoint" />
            <mxPoint x="299" y="456" as="targetPoint" />
          </mxGeometry>
        </mxCell>
        <mxCell id="K3IvD1-hRMfwmRw_c2fl-56" value="&lt;font size=&quot;1&quot; style=&quot;&quot; color=&quot;#ffffff&quot; face=&quot;Verdana&quot;&gt;&lt;b style=&quot;font-size: 14px;&quot;&gt;C&lt;/b&gt;&lt;/font&gt;" style="ellipse;whiteSpace=wrap;html=1;aspect=fixed;fillColor=#000000;fontColor=#ffffff;strokeColor=#000000;" vertex="1" parent="1">
          <mxGeometry x="129" y="431" width="40" height="40" as="geometry" />
        </mxCell>
        <mxCell id="K3IvD1-hRMfwmRw_c2fl-57" value="" style="endArrow=classic;html=1;rounded=0;exitX=1;exitY=1;exitDx=0;exitDy=0;entryX=0;entryY=0;entryDx=0;entryDy=0;" edge="1" parent="1" source="K3IvD1-hRMfwmRw_c2fl-44" target="K3IvD1-hRMfwmRw_c2fl-56">
          <mxGeometry width="50" height="50" relative="1" as="geometry">
            <mxPoint x="199" y="351" as="sourcePoint" />
            <mxPoint x="249" y="301" as="targetPoint" />
          </mxGeometry>
        </mxCell>
        <mxCell id="K3IvD1-hRMfwmRw_c2fl-58" value="&lt;font size=&quot;1&quot; style=&quot;&quot; color=&quot;#ffffff&quot; face=&quot;Verdana&quot;&gt;&lt;b style=&quot;font-size: 14px;&quot;&gt;B&lt;/b&gt;&lt;/font&gt;" style="ellipse;whiteSpace=wrap;html=1;aspect=fixed;fillColor=#000000;fontColor=#ffffff;strokeColor=#000000;" vertex="1" parent="1">
          <mxGeometry x="389" y="431" width="40" height="40" as="geometry" />
        </mxCell>
        <mxCell id="K3IvD1-hRMfwmRw_c2fl-59" value="&lt;font size=&quot;1&quot; style=&quot;&quot; color=&quot;#ffffff&quot; face=&quot;Verdana&quot;&gt;&lt;b style=&quot;font-size: 14px;&quot;&gt;D&lt;/b&gt;&lt;/font&gt;" style="ellipse;whiteSpace=wrap;html=1;aspect=fixed;fillColor=#000000;" vertex="1" parent="1">
          <mxGeometry x="319" y="497" width="40" height="40" as="geometry" />
        </mxCell>
        <mxCell id="K3IvD1-hRMfwmRw_c2fl-60" value="" style="endArrow=classic;html=1;rounded=0;exitX=0;exitY=1;exitDx=0;exitDy=0;entryX=1;entryY=0;entryDx=0;entryDy=0;" edge="1" parent="1" source="K3IvD1-hRMfwmRw_c2fl-58" target="K3IvD1-hRMfwmRw_c2fl-59">
          <mxGeometry width="50" height="50" relative="1" as="geometry">
            <mxPoint x="658" y="561" as="sourcePoint" />
            <mxPoint x="352.14213562373106" y="496.85786437626894" as="targetPoint" />
          </mxGeometry>
        </mxCell>
        <mxCell id="K3IvD1-hRMfwmRw_c2fl-61" value="" style="endArrow=classic;html=1;rounded=0;exitX=1;exitY=1;exitDx=0;exitDy=0;entryX=0;entryY=0;entryDx=0;entryDy=0;" edge="1" parent="1" source="K3IvD1-hRMfwmRw_c2fl-58" target="K3IvD1-hRMfwmRw_c2fl-62">
          <mxGeometry width="50" height="50" relative="1" as="geometry">
            <mxPoint x="658" y="561" as="sourcePoint" />
            <mxPoint x="510.6170993996443" y="503.121614028419" as="targetPoint" />
          </mxGeometry>
        </mxCell>
        <mxCell id="K3IvD1-hRMfwmRw_c2fl-62" value="&lt;font size=&quot;1&quot; style=&quot;&quot; color=&quot;#ffffff&quot; face=&quot;Verdana&quot;&gt;&lt;b style=&quot;font-size: 14px;&quot;&gt;E&lt;/b&gt;&lt;/font&gt;" style="ellipse;whiteSpace=wrap;html=1;aspect=fixed;fillColor=#e51400;fontColor=#ffffff;strokeColor=#B20000;" vertex="1" parent="1">
          <mxGeometry x="459" y="497" width="40" height="40" as="geometry" />
        </mxCell>
        <mxCell id="K3IvD1-hRMfwmRw_c2fl-63" value="&lt;font size=&quot;1&quot; style=&quot;&quot; color=&quot;#ffffff&quot; face=&quot;Verdana&quot;&gt;&lt;b style=&quot;font-size: 14px;&quot;&gt;A&lt;/b&gt;&lt;/font&gt;" style="ellipse;whiteSpace=wrap;html=1;aspect=fixed;fillColor=#000000;fontColor=#ffffff;strokeColor=#000000;" vertex="1" parent="1">
          <mxGeometry x="449" y="351" width="40" height="40" as="geometry" />
        </mxCell>
        <mxCell id="K3IvD1-hRMfwmRw_c2fl-64" value="" style="endArrow=classic;html=1;rounded=0;exitX=0;exitY=1;exitDx=0;exitDy=0;entryX=1;entryY=0;entryDx=0;entryDy=0;" edge="1" parent="1" source="K3IvD1-hRMfwmRw_c2fl-63" target="K3IvD1-hRMfwmRw_c2fl-58">
          <mxGeometry width="50" height="50" relative="1" as="geometry">
            <mxPoint x="569" y="561" as="sourcePoint" />
            <mxPoint x="619" y="511" as="targetPoint" />
          </mxGeometry>
        </mxCell>
        <mxCell id="K3IvD1-hRMfwmRw_c2fl-65" value="&lt;font face=&quot;Verdana&quot; size=&quot;1&quot; color=&quot;#ff0000&quot; style=&quot;&quot;&gt;&lt;b style=&quot;font-size: 18px;&quot;&gt;x&lt;/b&gt;&lt;/font&gt;" style="text;html=1;align=center;verticalAlign=middle;resizable=0;points=[];autosize=1;strokeColor=none;fillColor=none;" vertex="1" parent="1">
          <mxGeometry x="355" y="457" width="40" height="40" as="geometry" />
        </mxCell>
        <mxCell id="K3IvD1-hRMfwmRw_c2fl-66" value="&lt;font size=&quot;1&quot; style=&quot;&quot; color=&quot;#ffffff&quot; face=&quot;Verdana&quot;&gt;&lt;b style=&quot;font-size: 14px;&quot;&gt;C&lt;/b&gt;&lt;/font&gt;" style="ellipse;whiteSpace=wrap;html=1;aspect=fixed;fillColor=#e51400;fontColor=#ffffff;strokeColor=#B20000;" vertex="1" parent="1">
          <mxGeometry x="499" y="431" width="40" height="40" as="geometry" />
        </mxCell>
        <mxCell id="K3IvD1-hRMfwmRw_c2fl-67" value="" style="endArrow=classic;html=1;rounded=0;exitX=1;exitY=1;exitDx=0;exitDy=0;entryX=0;entryY=0;entryDx=0;entryDy=0;" edge="1" parent="1" source="K3IvD1-hRMfwmRw_c2fl-63" target="K3IvD1-hRMfwmRw_c2fl-66">
          <mxGeometry width="50" height="50" relative="1" as="geometry">
            <mxPoint x="569" y="351" as="sourcePoint" />
            <mxPoint x="619" y="301" as="targetPoint" />
          </mxGeometry>
        </mxCell>
        <mxCell id="K3IvD1-hRMfwmRw_c2fl-68" value="&lt;font style=&quot;font-size: 16px;&quot;&gt;①&lt;/font&gt;" style="text;html=1;align=center;verticalAlign=middle;resizable=0;points=[];autosize=1;strokeColor=none;fillColor=none;" vertex="1" parent="1">
          <mxGeometry x="228" y="196" width="40" height="30" as="geometry" />
        </mxCell>
        <mxCell id="K3IvD1-hRMfwmRw_c2fl-79" value="&lt;font style=&quot;font-size: 16px;&quot;&gt;②&lt;/font&gt;" style="text;html=1;align=center;verticalAlign=middle;resizable=0;points=[];autosize=1;strokeColor=none;fillColor=none;" vertex="1" parent="1">
          <mxGeometry x="224" y="426" width="40" height="30" as="geometry" />
        </mxCell>
      </root>
    </mxGraphModel>
  </diagram>
</mxfile>
